<svg preserveAspectRatio="none" width="100%" height="100%" overflow="visible" style="display: block;" viewBox="0 0 390 201.749" fill="none" xmlns="http://www.w3.org/2000/svg">
<g id="Mask group" opacity="0.5">
<mask id="mask0_0_315" style="mask-type:alpha" maskUnits="userSpaceOnUse" x="0" y="0" width="390" height="202">
<g id="Group 2087326663">
<line id="Line 2" x1="27.2565" y1="7.64287e-06" x2="27.2565" y2="201.749" stroke="var(--stroke-0, #EEEEEE)" stroke-width="0.719828"/>
<line id="Line 3" x1="69.2823" y1="7.64287e-06" x2="69.2823" y2="201.749" stroke="var(--stroke-0, #EEEEEE)" stroke-width="0.719828"/>
<line id="Line 4" x1="111.308" y1="7.64287e-06" x2="111.308" y2="201.749" stroke="var(--stroke-0, #EEEEEE)" stroke-width="0.719828"/>
<line id="Line 5" x1="153.334" y1="7.64287e-06" x2="153.334" y2="201.749" stroke="var(--stroke-0, #EEEEEE)" stroke-width="0.719828"/>
<line id="Line 6" x1="195.36" y1="7.64287e-06" x2="195.36" y2="201.749" stroke="var(--stroke-0, #EEEEEE)" stroke-width="0.719828"/>
<line id="Line 7" x1="237.386" y1="7.64287e-06" x2="237.386" y2="201.749" stroke="var(--stroke-0, #EEEEEE)" stroke-width="0.719828"/>
<line id="Line 8" x1="279.412" y1="7.64287e-06" x2="279.411" y2="201.749" stroke="var(--stroke-0, #EEEEEE)" stroke-width="0.719828"/>
<line id="Line 9" x1="321.437" y1="7.64287e-06" x2="321.437" y2="201.749" stroke="var(--stroke-0, #EEEEEE)" stroke-width="0.719828"/>
<line id="Line 10" x1="363.463" y1="7.64287e-06" x2="363.463" y2="201.749" stroke="var(--stroke-0, #EEEEEE)" stroke-width="0.719828"/>
<line id="Line 12" x1="390" y1="7.25195" x2="6.08243e-08" y2="7.25194" stroke="var(--stroke-0, #EEEEEE)" stroke-width="0.719828"/>
<line id="Line 13" x1="390" y1="38.5794" x2="6.08243e-08" y2="38.5794" stroke="var(--stroke-0, #EEEEEE)" stroke-width="0.719828"/>
<line id="Line 14" x1="390" y1="69.9068" x2="6.08243e-08" y2="69.9068" stroke="var(--stroke-0, #EEEEEE)" stroke-width="0.719828"/>
<line id="Line 15" x1="390" y1="101.234" x2="6.08243e-08" y2="101.234" stroke="var(--stroke-0, #EEEEEE)" stroke-width="0.719828"/>
<line id="Line 16" x1="390" y1="132.562" x2="6.08243e-08" y2="132.562" stroke="var(--stroke-0, #EEEEEE)" stroke-width="0.719828"/>
<line id="Line 17" x1="390" y1="163.889" x2="6.08243e-08" y2="163.889" stroke="var(--stroke-0, #EEEEEE)" stroke-width="0.719828"/>
<line id="Line 18" x1="390" y1="195.217" x2="6.08243e-08" y2="195.216" stroke="var(--stroke-0, #EEEEEE)" stroke-width="0.719828"/>
</g>
</mask>
<g mask="url(#mask0_0_315)">
<g id="Ellipse 2" filter="url(#filter0_f_0_315)">
<ellipse cx="195" cy="100.968" rx="126.108" ry="62.6698" fill="var(--fill-0, #D9D9D9)"/>
</g>
</g>
</g>
<defs>
<filter id="filter0_f_0_315" x="-31.1078" y="-61.7018" width="452.216" height="325.34" filterUnits="userSpaceOnUse" color-interpolation-filters="sRGB">
<feFlood flood-opacity="0" result="BackgroundImageFix"/>
<feBlend mode="normal" in="SourceGraphic" in2="BackgroundImageFix" result="shape"/>
<feGaussianBlur stdDeviation="50" result="effect1_foregroundBlur_0_315"/>
</filter>
</defs>
</svg>
