<svg preserveAspectRatio="none" width="100%" height="100%" overflow="visible" style="display: block;" viewBox="0 0 38.3334 38.3333" fill="none" xmlns="http://www.w3.org/2000/svg">
<path id="Vector" d="M1.91677 30.6668C1.91667 30.543 1.91667 30.4154 1.91667 30.2837V8.05038C1.91667 5.90351 1.91667 4.82928 2.33448 4.00928C2.70199 3.28799 3.28799 2.70199 4.00928 2.33448C4.82928 1.91667 5.90351 1.91667 8.05038 1.91667H30.2837C32.4306 1.91667 33.5035 1.91667 34.3234 2.33448C35.0447 2.70199 35.6318 3.28799 35.9993 4.00928C36.4167 4.82847 36.4167 5.90141 36.4167 8.04408V30.2893C36.4167 31.2189 36.4167 31.9468 36.3826 32.54M1.91677 30.6668C1.91824 32.5611 1.9423 33.5528 2.33448 34.3225C2.70199 35.0438 3.28799 35.6318 4.00928 35.9993C4.82847 36.4167 5.90141 36.4167 8.04408 36.4167H30.2902C32.4329 36.4167 33.5043 36.4167 34.3234 35.9993C35.0447 35.6318 35.6318 35.0438 35.9993 34.3225C36.2356 33.8587 36.3381 33.3141 36.3826 32.54M1.91677 30.6668L11.0553 20.0052L11.058 20.0023C11.8685 19.0566 12.2745 18.5831 12.7559 18.4124C13.1789 18.2624 13.6407 18.2659 14.0615 18.4217C14.5411 18.5993 14.9405 19.0783 15.7395 20.037L20.8592 26.1807C21.5988 27.0682 21.9708 27.5146 22.4224 27.6937C22.8207 27.8517 23.26 27.8695 23.671 27.7482C24.1389 27.6101 24.5507 27.1983 25.3743 26.3748L26.327 25.422C27.1656 24.5835 27.5848 24.1645 28.0594 24.0276C28.4762 23.9073 28.9218 23.9331 29.3228 24.0987C29.7793 24.2872 30.1495 24.7487 30.8903 25.6747L36.3826 32.54M36.3826 32.54L36.4166 32.5826M24.9167 13.4167C23.8581 13.4167 23 12.5585 23 11.5C23 10.4415 23.8581 9.58334 24.9167 9.58334C25.9752 9.58334 26.8333 10.4415 26.8333 11.5C26.8333 12.5585 25.9752 13.4167 24.9167 13.4167Z" stroke="var(--stroke-0, black)" stroke-opacity="0.2" stroke-width="3.83333" stroke-linecap="round" stroke-linejoin="round"/>
</svg>
