<svg preserveAspectRatio="none" width="100%" height="100%" overflow="visible" style="display: block;" viewBox="0 0 18.75 18.75" fill="none" xmlns="http://www.w3.org/2000/svg">
<g id="Search 1">
<g id="Vector">
<path d="M6.7376 3.7936C7.07853 3.7396 7.31113 3.41945 7.25713 3.07852C7.20313 2.73759 6.88298 2.50499 6.54206 2.55899C4.49174 2.88373 2.8837 4.49176 2.55896 6.54208C2.50497 6.88301 2.73757 7.20316 3.0785 7.25716C3.41943 7.31116 3.73958 7.07855 3.79357 6.73762C4.0336 5.22217 5.22215 4.03362 6.7376 3.7936Z" fill="var(--fill-0, #949494)"/>
<path fill-rule="evenodd" clip-rule="evenodd" d="M8.125 0C3.63769 0 0 3.63769 0 8.125C0 12.6123 3.63769 16.25 8.125 16.25C12.6123 16.25 16.25 12.6123 16.25 8.125C16.25 3.63769 12.6123 0 8.125 0ZM1.25 8.125C1.25 4.32804 4.32804 1.25 8.125 1.25C11.922 1.25 15 4.32804 15 8.125C15 11.922 11.922 15 8.125 15C4.32804 15 1.25 11.922 1.25 8.125Z" fill="var(--fill-0, #949494)"/>
<path d="M15.2337 14.3498C14.9896 14.1057 14.5939 14.1057 14.3498 14.3498C14.1057 14.5939 14.1057 14.9896 14.3498 15.2337L17.683 18.567C17.9271 18.811 18.3228 18.8111 18.5669 18.567C18.811 18.3229 18.811 17.9272 18.5669 17.6831L15.2337 14.3498Z" fill="var(--fill-0, #949494)"/>
</g>
</g>
</svg>
